<svg  fill="rgba(134,169,155,0.17)" height="300px" width="300px" viewBox="0 0 300 300" preserveAspectRatio="none" xmlns="http://www.w3.org/2000/svg"><path d="M41.2,72.38A23.15,23.15,0,0,0,38.08,37,2.5,2.5,0,0,1,41,32.91a29.88,29.88,0,0,1,3.79,3.17,28.21,28.21,0,0,1,0,39.84A29.88,29.88,0,0,1,41,79.09a2.54,2.54,0,0,1-1.43.45A2.5,2.5,0,0,1,38.08,75,23.32,23.32,0,0,0,41.2,72.38ZM15.66,0H10.12a23.27,23.27,0,0,1-4.4,5.86A23.17,23.17,0,0,1,0,9.89v5.49A28.29,28.29,0,0,0,9.18,9.46,28.14,28.14,0,0,0,15.66,0Zm1.81,284.78a2.5,2.5,0,0,0-4.94.77,23.3,23.3,0,0,1,.28,4.06A23,23,0,0,1,10.12,300h5.54a28.18,28.18,0,0,0,2.15-10.29A28.26,28.26,0,0,0,17.47,284.78ZM285.17,11.89a2.5,2.5,0,0,0-1,4.91,28.46,28.46,0,0,0,4.91.53h.55A28.15,28.15,0,0,0,300,15.38V9.89a23.08,23.08,0,0,1-10.79,2.44A23.33,23.33,0,0,1,285.17,11.89Zm-82.73,63.6a29.71,29.71,0,0,0-4.85-.94,2.5,2.5,0,0,0-.53,5,23.59,23.59,0,0,1,4,.78,23.13,23.13,0,0,1,14.38,32.46,2.5,2.5,0,0,0,4.49,2.2,27.06,27.06,0,0,0,1.78-4.61,28.16,28.16,0,0,0-19.27-34.86ZM262.38,58a28.27,28.27,0,0,0,14-3.74A2.5,2.5,0,0,0,273.88,50a24,24,0,0,1-3.69,1.71,23.13,23.13,0,0,1-30.67-17.9,2.5,2.5,0,0,0-4.93.85A28.19,28.19,0,0,0,262.38,58Zm-58,111.57h0a2.49,2.49,0,0,0-2.5,2.49,24.49,24.49,0,0,1-.37,4.05,23.2,23.2,0,0,1-26.94,18.65,22.91,22.91,0,0,1-3.92-1.08,2.5,2.5,0,1,0-1.73,4.69,28.31,28.31,0,0,0,4.76,1.31A28.13,28.13,0,0,0,206.44,177a28.49,28.49,0,0,0,.45-4.92A2.51,2.51,0,0,0,204.4,169.61Zm-18.8,83.24a23.13,23.13,0,0,1-26.2-27.49,2.5,2.5,0,1,0-4.9-1,28.53,28.53,0,0,0-.56,4.91,28.18,28.18,0,0,0,27.48,28.84h.65a29.46,29.46,0,0,0,4.28-.32,2.5,2.5,0,1,0-.75-5ZM254,121.26a23.92,23.92,0,0,1,3.34-2.32,2.5,2.5,0,0,0-2.5-4.33,27.65,27.65,0,0,0-4.05,2.83,28.12,28.12,0,0,0,.05,43.16,2.42,2.42,0,0,0,1.6.59,2.5,2.5,0,0,0,1.61-4.42,22.32,22.32,0,0,1-2.88-2.87A23.18,23.18,0,0,1,254,121.26Zm24.05,91.85a28.19,28.19,0,0,0-39.82,1,28.5,28.5,0,0,0-3.08,3.86,2.5,2.5,0,0,0,.7,3.46,2.45,2.45,0,0,0,1.38.42,2.51,2.51,0,0,0,2.09-1.11,23.11,23.11,0,0,1,35.28-4,22.66,22.66,0,0,1,2.69,3.06,2.5,2.5,0,0,0,4-3A28.38,28.38,0,0,0,278.05,213.11Zm-9.73,72a28,28,0,0,0-13.33-17,29.54,29.54,0,0,0-4.5-2,2.5,2.5,0,1,0-1.65,4.72,23.84,23.84,0,0,1,3.7,1.67A23.15,23.15,0,0,1,263.19,300h5.23A28,28,0,0,0,268.32,285.1ZM259.1,7.41A2.5,2.5,0,1,0,263,10.58a27.54,27.54,0,0,0,2.79-4.08A28.33,28.33,0,0,0,268.42,0h-5.23a23.55,23.55,0,0,1-1.79,4.06A22.92,22.92,0,0,1,259.1,7.41ZM80.45,256.51a28,28,0,0,0-20.28-7.3,28.42,28.42,0,0,0-4.89.66,2.5,2.5,0,1,0,1.1,4.88,23.37,23.37,0,0,1,4-.55,23.16,23.16,0,0,1,24.22,22.06,22.23,22.23,0,0,1-.17,4.06,2.51,2.51,0,0,0,2.16,2.8l.33,0A2.5,2.5,0,0,0,89.42,281a29.36,29.36,0,0,0,.21-4.94A28,28,0,0,0,80.45,256.51ZM97.35,93.44a2.5,2.5,0,0,0-3,1.92,23.15,23.15,0,0,1-35,14.84,2.5,2.5,0,1,0-2.65,4.24,28.53,28.53,0,0,0,4.4,2.25,28.16,28.16,0,0,0,36.66-15.56,28.78,28.78,0,0,0,1.44-4.73A2.49,2.49,0,0,0,97.35,93.44Zm34-49.5a28.18,28.18,0,0,0,39.46-5.41,28.34,28.34,0,0,0,2.63-4.18A2.5,2.5,0,1,0,169,32.07,23.16,23.16,0,0,1,134.36,40a23.44,23.44,0,0,1-3-2.74,2.5,2.5,0,0,0-3.66,3.4A28.51,28.51,0,0,0,131.34,43.94ZM192.55,8.17a28,28,0,0,0,14-3.76,28.42,28.42,0,0,0,4.05-2.84A2.48,2.48,0,0,0,211.48,0H204.2a.5.5,0,0,0-.12.08,23.07,23.07,0,0,1-17.59,2.3A23.4,23.4,0,0,1,180.83,0h-8.16A28.26,28.26,0,0,0,192.55,8.17Zm18.38,289.88a2.51,2.51,0,0,0-3.53-.31,23.18,23.18,0,0,1-3.2,2.26h7.28A2.5,2.5,0,0,0,210.93,298.05Zm-38.49-6.47a23.43,23.43,0,0,1-1.72-3.69,2.5,2.5,0,1,0-4.7,1.7A28.06,28.06,0,0,0,172.67,300h8.16A23,23,0,0,1,172.44,291.58Zm-19-193.11A23,23,0,0,1,143.19,84a22.34,22.34,0,0,1-.54-4,2.5,2.5,0,1,0-5,.24,28.14,28.14,0,0,0,13.1,22.5,27.93,27.93,0,0,0,15,4.36,28.4,28.4,0,0,0,6.26-.7,28.87,28.87,0,0,0,4.7-1.51,2.5,2.5,0,1,0-1.93-4.61,23.15,23.15,0,0,1-21.34-1.77ZM155.19,140a23.44,23.44,0,0,1,4.05.36,2.5,2.5,0,1,0,.86-4.92,27.41,27.41,0,0,0-4.91-.44A28.12,28.12,0,0,0,127.46,168a2.49,2.49,0,0,0,2.45,2.07,2.18,2.18,0,0,0,.44,0,2.5,2.5,0,0,0,2-2.89A23.15,23.15,0,0,1,155.19,140ZM45.49,150.05a23.46,23.46,0,0,1-.41-4.05,2.48,2.48,0,0,0-2.54-2.46,2.5,2.5,0,0,0-2.46,2.54,27.63,27.63,0,0,0,.5,4.92,28.11,28.11,0,0,0,33,22.32A28.4,28.4,0,0,0,78.32,172a2.5,2.5,0,1,0-1.79-4.67,23.16,23.16,0,0,1-31-17.24Zm60.74,38.69a2.5,2.5,0,1,0-3,4,23.15,23.15,0,0,1-.8,38,2.5,2.5,0,0,0,1.39,4.58,2.54,2.54,0,0,0,1.39-.42,29.1,29.1,0,0,0,3.85-3.09A28.17,28.17,0,0,0,110,192,28.34,28.34,0,0,0,106.23,188.74ZM59.5,208.6a2.5,2.5,0,0,0-1.38-3.26A28.14,28.14,0,0,0,20,225.5a28.41,28.41,0,0,0-.6,4.91,2.5,2.5,0,0,0,2.4,2.59h.1a2.49,2.49,0,0,0,2.49-2.41,24.25,24.25,0,0,1,.5-4A23.16,23.16,0,0,1,56.24,210,2.5,2.5,0,0,0,59.5,208.6ZM19.38,106.89a23.47,23.47,0,0,1,3.88,1.21,2.5,2.5,0,1,0,1.88-4.63A28.09,28.09,0,0,0,0,105.41v6.08a20.78,20.78,0,0,1,1.94-1.4A23,23,0,0,1,19.38,106.89Zm279.84-1a28.05,28.05,0,0,0-12.85,22.64,2.49,2.49,0,0,0,2.4,2.59h.1a2.49,2.49,0,0,0,2.49-2.41,23.25,23.25,0,0,1,.5-4A23,23,0,0,1,300,111.49v-6.08C299.74,105.57,299.48,105.72,299.22,105.89ZM83.12,47.37a2.25,2.25,0,0,0,.44,0,2.49,2.49,0,0,0,2-2.9,24.19,24.19,0,0,1-.36-4,23.15,23.15,0,0,1,27.22-22.8,2.5,2.5,0,0,0,.87-4.93A28.13,28.13,0,0,0,80.66,45.3,2.5,2.5,0,0,0,83.12,47.37Z"/></svg>